<svg xmlns="http://www.w3.org/2000/svg" width="48" height="48" viewBox="0 0 48 48">
    <path d="M24 5.5c10.753 0 19.5 8.012 19.5 17.907S34.753 41.314 24 41.314c-2.647 0-5.234-.485-7.641-1.428l-.328-.129-.327.218-.291.185c-1.153.698-2.916 1.438-5.297 2.23l-2.814.87.89-3.016c.569-1.996.884-3.6.957-4.83l.022-.384-.263-.293-.468-.545c-2.557-3.099-3.94-6.86-3.94-10.785C4.5 13.512 13.247 5.5 24 5.5zm0 3c-9.152 0-16.5 6.73-16.5 14.907 0 3.22 1.135 6.308 3.234 8.852l.428.498 1.078 1.203-.096 1.63c-.05.846-.188 1.798-.414 2.87l-.036.166.467-.192c.608-.258 1.111-.502 1.505-.726l.165-.097.237-.15 1.601-1.068 1.784.7c2.058.806 4.273 1.221 6.547 1.221 9.152 0 16.5-6.73 16.5-14.907S33.152 8.5 24 8.5zM24 22c1.105 0 2 .895 2 2s-.895 2-2 2-2-.895-2-2 .895-2 2-2zm8 0c1.105 0 2 .895 2 2s-.895 2-2 2-2-.895-2-2 .895-2 2-2zm-16 0c1.105 0 2 .895 2 2s-.895 2-2 2-2-.895-2-2 .895-2 2-2z"/>
</svg>