<!--<svg xmlns="http://www.w3.org/2000/svg" viewBox="0 0 137.67 181.23">-->
<!--    <defs>-->
<!--        <style>.cls-1{fill:#345fab;}</style>-->
<!--    </defs>-->
<!--    <g id="레이어_2" data-name="레이어 2">-->
<!--        <g id="레이어_1-2" data-name="레이어 1">-->
<!--            <path class="cls-1"-->
<!--                  d="M96.6,87.91c-7,5-18.54,7.89-27.76,7.89s-20.77-2.93-27.77-7.89C15.62,95.78,0,119.58,0,147.52V168.6c0,7,30.82,12.63,68.84,12.63s68.83-5.66,68.83-12.63V147.52C137.67,119.58,122.05,95.78,96.6,87.91Z"/>-->
<!--            <path class="cls-1" d="M68.84,0a42.89,42.89,0,1,0,42.89,42.9A42.9,42.9,0,0,0,68.84,0Z"/>-->
<!--        </g>-->
<!--    </g>-->
<!--</svg>-->

<!--<svg xmlns="http://www.w3.org/2000/svg" viewBox="0 0 137.67 181.23">-->
<!--    <defs>-->
<!--        <style>.cls-1{fill:#345fab;}</style>-->
<!--    </defs>-->
<!--    <g fill="#345fab" fill-rule="evenodd">-->
<!--        <path class="cls-1"-->
<!--              d="M96.6,87.91c-7,5-18.54,7.89-27.76,7.89s-20.77-2.93-27.77-7.89C15.62,95.78,0,119.58,0,147.52V168.6c0,7,30.82,12.63,68.84,12.63s68.83-5.66,68.83-12.63V147.52C137.67,119.58,122.05,95.78,96.6,87.91Z"/>-->
<!--        <path class="cls-1" d="M68.84,0a42.89,42.89,0,1,0,42.89,42.9A42.9,42.9,0,0,0,68.84,0Z"/>-->
<!--    </g>-->
<!--</svg>-->
<!--<svg xmlns="http://www.w3.org/2000/svg" viewBox="0 0 137.67 181.23">-->
<!--    <g fill="#2962ff" fill-rule="nonzero">-->
<!--        <path d="M96.6,87.91c-7,5-18.54,7.89-27.76,7.89s-20.77-2.93-27.77-7.89C15.62,95.78,0,119.58,0,147.52V168.6c0,7,30.82,12.63,68.84,12.63s68.83-5.66,68.83-12.63V147.52C137.67,119.58,122.05,95.78,96.6,87.91Z"/>-->
<!--        <path d="M68.84,0a42.89,42.89,0,1,0,42.89,42.9A42.9,42.9,0,0,0,68.84,0Z"/>-->
<!--    </g>-->
<!--</svg>-->

<svg xmlns="http://www.w3.org/2000/svg" viewBox="0 0 137.67 181.23">
    <g fill="none" fill-rule="nonzero">
        <path fill="#2962ff" fill-rule="nonzero"
            d="M96.6,87.91c-7,5-18.54,7.89-27.76,7.89s-20.77-2.93-27.77-7.89C15.62,95.78,0,119.58,0,147.52V168.6c0,7,30.82,12.63,68.84,12.63s68.83-5.66,68.83-12.63V147.52C137.67,119.58,122.05,95.78,96.6,87.91Z"/>
        <path fill="#2962ff" fill-rule="nonzero" d="M68.84,0a42.89,42.89,0,1,0,42.89,42.9A42.9,42.9,0,0,0,68.84,0Z"/>
    </g>
</svg>
